<svg width="34" height="35" viewBox="0 0 auto 18" fill="none" xmlns="http://www.w3.org/2000/svg">
<path d="M23.7875 34.0523H10.2125C4.58264 34.0523 0 29.5968 0 24.1233V10.9251C0 5.45153 4.58264 0.996094 10.2125 0.996094H23.7875C29.4173 0.996094 34 5.45153 34 10.9251V24.1233C34 29.5968 29.4173 34.0523 23.7875 34.0523ZM10.2125 4.10649C6.35037 4.10649 3.19921 7.16085 3.19921 10.9251V24.1233C3.19921 27.8782 6.34076 30.9419 10.2125 30.9419H23.7875C27.6496 30.9419 30.8008 27.8875 30.8008 24.1233V10.9251C30.8008 7.17019 27.6592 4.10649 23.7875 4.10649H10.2125Z" fill="white"/>
<path d="M25.997 6.89941C24.8922 6.89941 24.0083 7.76808 24.0083 8.8329C24.0083 9.90707 24.9018 10.7664 25.997 10.7664C27.1018 10.7664 27.9857 9.89773 27.9857 8.8329C27.9953 7.76808 27.1018 6.89941 25.997 6.89941Z" fill="white"/>
<path d="M17.1387 9.38379C12.5272 9.38379 8.77075 13.0359 8.77075 17.5194C8.77075 22.0029 12.5272 25.655 17.1387 25.655C21.7501 25.655 25.5066 22.0029 25.5066 17.5194C25.5162 13.0359 21.7597 9.38379 17.1387 9.38379ZM17.1387 22.7408C14.1796 22.7408 11.7778 20.4056 11.7778 17.5287C11.7778 14.6519 14.1796 12.3167 17.1387 12.3167C20.0977 12.3167 22.4995 14.6519 22.4995 17.5287C22.4995 20.3963 20.0977 22.7408 17.1387 22.7408Z" fill="white"/>
</svg>
