<svg width="21" height="20" viewBox="0 0 21 20" fill="none" xmlns="http://www.w3.org/2000/svg">
<path d="M12.2455 14.504C7.81142 17.0877 3.39014 15.1706 1.44503 12.4092C-0.730416 9.31764 -0.429692 5.12155 2.21284 2.39186C4.81058 -0.287035 9.02072 -0.769491 12.1879 1.21746C15.048 3.00763 17.2106 7.26721 14.8176 11.8124C16.654 13.4249 18.4903 15.0373 20.3267 16.6497C21.1712 17.3924 21.2224 18.2494 20.4738 19.081C20.3522 19.2207 20.2243 19.3603 20.0899 19.4936C19.4693 20.1031 18.6311 20.1856 17.972 19.6143C16.1677 18.059 14.389 16.4783 12.6038 14.904C12.4758 14.7961 12.3671 14.6437 12.2455 14.504ZM12.8597 7.85758C12.8789 5.2739 10.8123 2.9505 7.92659 2.9505C5.06012 2.95685 3.01264 5.16598 2.96145 7.83853C2.91026 10.5111 5.23927 12.8408 7.93299 12.7837C10.8698 12.7202 12.8853 10.4032 12.8597 7.85758Z" fill="white"/>
</svg>
