<svg width="28" height="34" viewBox="0 0 28 34" fill="none" xmlns="http://www.w3.org/2000/svg">
<path d="M14.192 8.70801C11.9982 8.70801 10.2051 10.4214 10.2051 12.539C10.2051 14.647 11.9882 16.3699 14.192 16.3699C16.3857 16.3699 18.1788 14.6566 18.1788 12.539C18.1788 10.4214 16.3857 8.70801 14.192 8.70801Z" fill="white"/>
<path d="M14.1919 0.294922C6.80918 0.294922 0.818848 6.05098 0.818848 13.145C0.818848 19.1994 10.5456 30.1436 13.4106 33.243C13.8313 33.6954 14.5625 33.6954 14.9833 33.243C17.8482 30.1436 27.575 19.1994 27.575 13.145C27.565 6.05098 21.5746 0.294922 14.1919 0.294922ZM14.1919 18.8914C10.5456 18.8914 7.58051 16.0422 7.58051 12.5386C7.58051 9.03488 10.5456 6.18573 14.1919 6.18573C17.8382 6.18573 20.8033 9.03488 20.8033 12.5386C20.8033 16.0326 17.8382 18.8914 14.1919 18.8914Z" fill="white"/>
</svg>
