<svg width="30" height="24" viewBox="0 0 31 25" fill="none" xmlns="http://www.w3.org/2000/svg">
<path fill-rule="evenodd" clip-rule="evenodd" d="M27.2926 16.516C26.0193 15.8344 24.3568 15.0736 22.8713 15.6284C21.7218 16.0563 20.979 17.6572 20.2362 18.4815C19.8471 18.9094 19.405 18.9728 18.8037 18.7509C14.4885 17.2134 11.1814 14.6298 8.79392 11.0635C8.40484 10.5087 8.47559 10.0807 8.97077 9.57353C9.67818 8.81271 10.5801 7.94094 10.7747 6.92652C10.9692 5.89624 10.4386 4.70746 9.96114 3.80399C9.35984 2.63106 8.68781 0.966772 7.39679 0.316906C6.1942 -0.30126 4.62022 0.047449 3.55911 0.824118C1.71986 2.1714 0.835602 4.26365 0.853287 6.3559C0.853287 6.94237 0.941713 7.54468 1.10088 8.1153C1.47227 9.47843 2.17967 10.7623 2.97551 11.9828C3.5768 12.9021 4.23115 13.7897 4.93856 14.6615C7.25531 17.467 10.1203 19.908 13.4451 21.7466C15.1075 22.666 16.8937 23.4585 18.7507 24.0132C20.8198 24.6314 22.6768 25.2654 24.9228 24.885C27.2749 24.4888 29.5917 23.189 30.529 21.1602C30.8119 20.5579 30.9357 19.8921 30.7942 19.2581C30.4582 17.9267 28.4775 17.15 27.2926 16.516Z" fill="white"/>
</svg>
