<svg width="36" height="37" viewBox="0 0 36 37" fill="none" xmlns="http://www.w3.org/2000/svg">
<path fill-rule="evenodd" clip-rule="evenodd" d="M31.2435 37L26.4295 31.2474L23.1267 36.3298L17.8646 17.8439L34.8266 26.9467L29.1165 29.2369L33.6509 34.9337L31.2435 37ZM17.6337 0C7.89444 0 0 7.87601 0 17.5925C0 27.3084 7.89444 35.1844 17.6337 35.1844C18.7055 35.1844 19.7555 35.0886 20.7746 34.9061L19.6529 30.9645C19.0502 32.0836 18.3633 32.7177 17.6337 32.7177C15.9119 32.7177 14.4263 29.1903 13.7329 24.0862H17.6949L17.0863 21.9477H13.4973C13.3789 20.568 13.3151 19.1062 13.3151 17.5925C13.3151 16.0546 13.3809 14.5712 13.5026 13.1737H21.7641C21.8859 14.5712 21.9517 16.0546 21.9517 17.5925C21.9517 17.7002 21.951 17.8078 21.9503 17.9155L24.1399 19.0904C24.155 18.5968 24.1629 18.0966 24.1629 17.5925C24.1629 16.0671 24.0932 14.5869 23.9616 13.1737H32.3008C32.7239 14.5725 32.9515 16.0559 32.9515 17.5925C32.9515 19.1055 32.7304 20.5673 32.3192 21.9477H29.4632L33.9219 24.3402C34.7878 22.2621 35.2667 19.9831 35.2667 17.5925C35.2667 7.87601 27.3723 0 17.6337 0ZM13.9914 2.74568C9.47806 3.84381 5.74895 6.93672 3.79359 11.0346H11.5571C12.0453 7.64103 12.9019 4.75554 13.9914 2.74568ZM2.96658 13.1737C2.54354 14.5725 2.31524 16.0559 2.31524 17.5925C2.31524 19.1055 2.53696 20.5673 2.9475 21.9477H11.2992C11.1716 20.5535 11.1038 19.0944 11.1038 17.5925C11.1038 16.0671 11.1742 14.5869 11.3051 13.1737H2.96658ZM3.76399 24.0862C5.71013 28.2162 9.45504 31.3354 13.9921 32.4388C12.8953 30.4171 12.0348 27.5073 11.5479 24.0862H3.76399ZM31.4731 11.0346C29.5184 6.93672 25.7887 3.84381 21.2753 2.74568C22.3648 4.75554 23.2214 7.64103 23.7096 11.0346H31.4731ZM17.6337 2.46671C15.9191 2.46671 14.4382 5.96526 13.7408 11.0346H21.526C20.8286 5.96526 19.3476 2.46671 17.6337 2.46671Z" fill="white"/>
</svg>
