<svg width="32" height="21" viewBox="0 0 32 21" fill="none" xmlns="http://www.w3.org/2000/svg">
<path d="M2.29527 0.971829L13.0618 11.3737C13.675 11.9628 14.5598 12.3058 15.4796 12.3058C16.4082 12.3058 17.2842 11.9702 17.8975 11.3737L28.48 1.15078C28.5676 1.06876 28.6727 1.00166 28.7778 0.94946C28.3311 0.785416 27.8317 0.688477 27.3149 0.688477H3.65312C3.15378 0.688477 2.68072 0.770504 2.25146 0.927092C2.26023 0.942005 2.27775 0.956916 2.29527 0.971829Z" fill="white"/>
<path d="M30.4247 2.14941C30.3809 2.25381 30.3109 2.35819 30.2145 2.44767L19.632 12.6706C18.5807 13.6847 17.0739 14.2663 15.4883 14.2663C13.9027 14.2663 12.3959 13.6847 11.3447 12.6706L0.578184 2.26871C0.560663 2.24634 0.543142 2.22397 0.525622 2.2016C0.192728 2.67137 0 3.2157 0 3.80477V17.8827C0 19.6052 1.63819 20.9996 3.66183 20.9996H27.3411C29.3647 20.9996 31.0029 19.6052 31.0029 17.8827V3.80477C30.9854 3.19333 30.7752 2.62663 30.4247 2.14941Z" fill="white"/>
</svg>
