<svg width="0" height="0" viewBox="0 0 34 37" fill="none" xmlns="http://www.w3.org/2000/svg">
<path d="M33.3973 0H0V37H33.3973V0Z" fill="white"/>
<path d="M7.34298 14.3175V7.69409C7.49571 7.69409 7.69341 7.70761 7.93606 7.73466C8.17871 7.7617 8.3179 7.77552 8.35392 7.77552C8.50666 7.77552 8.6326 7.77005 8.73145 7.75912C9.1179 7.71567 9.32914 7.69409 9.36487 7.69409V12.3019V13.0334C9.36487 13.4451 9.36718 13.8488 9.37179 14.2499C9.37611 14.6507 9.40983 15.0544 9.47294 15.4581C9.53577 15.8644 9.60983 16.1947 9.69513 16.4494C9.78072 16.704 9.94009 16.9667 10.1738 17.2352C10.5873 17.7011 11.0995 17.9341 11.7107 17.9341C12.3487 17.9341 12.8476 17.7877 13.2069 17.495C13.5663 17.2027 13.8675 16.696 14.1101 15.97C14.2182 15.6558 14.2853 15.2141 14.3124 14.6398C14.3392 14.0655 14.3528 13.391 14.3528 12.611V7.69409L14.8919 7.743L15.4314 7.69409V13.4724C15.4314 14.6617 15.3683 15.5338 15.2427 16.0866C15.045 16.9616 14.6314 17.6605 14.0023 18.1778C13.6608 18.4811 13.2698 18.7007 12.8294 18.8362C12.3891 18.9714 11.9309 19.0393 11.4545 19.0393C10.5199 19.0393 9.72885 18.8497 9.08188 18.4705C8.30003 18.0072 7.79225 17.2864 7.55854 16.3113C7.48678 16.0215 7.43289 15.699 7.39687 15.3468C7.36084 14.9949 7.34298 14.6507 7.34298 14.3175ZM17.7634 18.8117V7.69409H19.098C19.6911 8.47443 20.3337 9.30859 21.0256 10.1971C21.4121 10.6848 22.0706 11.5354 23.0006 12.7491C23.9308 13.9628 24.5712 14.8133 24.9216 15.3007V7.69409L25.4608 7.743L26 7.69409V18.8442L24.8542 18.8278C24.0905 17.8092 23.3308 16.7855 22.5761 15.7559C21.7853 14.6942 21.0303 13.7081 20.3112 12.7977L18.8418 10.945V18.8442L18.3026 18.7628L17.7634 18.8117ZM9.83807 20.049V30.047C10.5398 30.047 11.1398 30.0306 11.6386 29.9978C12.1375 29.965 12.7922 29.9049 13.6035 29.8171C13.5816 29.9377 13.5623 30.0634 13.5458 30.1949C13.5294 30.3262 13.5213 30.4358 13.5213 30.5233C13.5213 30.5998 13.5323 30.7146 13.5542 30.868C13.5761 31.021 13.5925 31.1416 13.6035 31.2291H7.3718V20.049C7.55825 20.049 7.79917 20.0628 8.09514 20.0901C8.3911 20.1175 8.56113 20.1313 8.60493 20.1313C8.79139 20.1313 8.9447 20.1258 9.06545 20.1149C9.53663 20.0709 9.79427 20.049 9.83807 20.049ZM19.1282 28.6023V27.01C18.7994 27.1302 18.5363 27.2235 18.3389 27.2891C17.9772 27.4203 17.6977 27.5653 17.5003 27.7241C17.3032 27.8827 17.166 28.0717 17.0893 28.2904C17.0127 28.5094 16.9741 28.7721 16.9741 29.0785C16.9741 29.4506 17.0427 29.7625 17.1798 30.0142C17.3167 30.266 17.5496 30.3918 17.8784 30.3918C18.3389 30.3918 18.6732 30.2004 18.8816 29.8171C19.0458 29.5107 19.1282 29.1059 19.1282 28.6023ZM21.3971 25.4009V29.8666C21.3971 30.1731 21.4548 30.3782 21.5697 30.4821C21.685 30.5863 21.9069 30.6381 22.2357 30.6381V31.0156C22.0274 31.1143 21.7781 31.2127 21.4876 31.3114C21.1971 31.4098 20.9533 31.459 20.7559 31.459C20.3833 31.459 20.0516 31.3522 19.7611 31.1387C19.4706 30.9255 19.2597 30.6326 19.1282 30.2606C18.9089 30.6435 18.613 30.939 18.2403 31.1471C17.8674 31.3551 17.462 31.459 17.0236 31.459C16.3219 31.459 15.7628 31.2783 15.3464 30.9172C14.8968 30.5233 14.6723 29.9814 14.6723 29.292C14.6723 28.5476 14.9133 27.9949 15.3957 27.6338C15.7902 27.3383 16.5522 27.0537 17.6813 26.7801C17.9334 26.7145 18.136 26.6598 18.2896 26.6161C18.5308 26.5392 18.728 26.4518 18.8816 26.3533C18.9692 26.2656 19.0323 26.1726 19.0706 26.0742C19.1089 25.9755 19.1282 25.8553 19.1282 25.7131C19.1282 25.3299 18.9666 24.9935 18.6432 24.7035C18.3196 24.4134 17.9608 24.2684 17.566 24.2684C17.0948 24.2684 16.6398 24.3996 16.2015 24.6623C15.8398 24.8813 15.6259 25.089 15.5602 25.2861H15.445L15.2314 24.2684C15.604 23.9289 16.0672 23.6664 16.6208 23.4803C17.1744 23.2941 17.7251 23.2012 18.2732 23.2012C19.0954 23.2012 19.7859 23.36 20.345 23.6774C21.0464 24.0713 21.3971 24.6459 21.3971 25.4009ZM23.5634 31.459C23.3836 31.459 23.2317 31.3942 23.1075 31.265C22.9833 31.1356 22.921 30.9839 22.921 30.8096C22.921 30.6407 22.9844 30.4905 23.1115 30.3584C23.2383 30.2263 23.389 30.1604 23.5634 30.1604C23.738 30.1604 23.8913 30.2237 24.0233 30.3503C24.1556 30.4772 24.2216 30.6303 24.2216 30.8096C24.2216 30.9891 24.1582 31.1422 24.0314 31.2691C23.9043 31.3957 23.7484 31.459 23.5634 31.459ZM4.35365 22.3308H2.81533C2.81533 22.2971 2.8185 22.2537 2.82484 22.2001C2.83118 22.1469 2.83406 22.1164 2.83406 22.1083C2.83406 22.0747 2.8329 22.0471 2.83031 22.0255C2.82022 21.9406 2.81533 21.894 2.81533 21.8862H3.88564H4.05538C4.15106 21.8862 4.24472 21.8856 4.3378 21.8845C4.43117 21.8836 4.52483 21.8761 4.61849 21.8623C4.71301 21.8485 4.78967 21.8324 4.84875 21.8134C4.90783 21.7947 4.96892 21.7596 5.03117 21.7084C5.13953 21.6175 5.1937 21.505 5.1937 21.3706C5.1937 21.2302 5.1597 21.1205 5.09169 21.0414C5.02368 20.9626 4.9061 20.8964 4.73751 20.8429C4.6646 20.8193 4.56201 20.8046 4.42858 20.7986C4.29515 20.7925 4.13838 20.7896 3.9574 20.7896H2.81533L2.82656 20.6711L2.81533 20.5525H4.1574C4.43348 20.5525 4.63607 20.5664 4.7646 20.594C4.96777 20.6374 5.13002 20.7284 5.25019 20.8668C5.32079 20.9419 5.37151 21.0276 5.40321 21.1246C5.43463 21.2212 5.45019 21.322 5.45019 21.4267C5.45019 21.6321 5.40638 21.8062 5.3182 21.9484C5.21071 22.1201 5.04327 22.2318 4.81676 22.2833C4.74933 22.2991 4.6744 22.3109 4.59284 22.3187C4.511 22.3267 4.43117 22.3308 4.35365 22.3308ZM5.39745 20.0398H2.81533V19.7466C2.99659 19.6162 3.19025 19.475 3.39659 19.3227C3.50985 19.2379 3.70754 19.0931 3.98939 18.8886C4.27123 18.6843 4.46892 18.5433 4.58218 18.4664H2.81533L2.82656 18.3479L2.81533 18.2293H5.40494L5.4012 18.4811C5.1646 18.6492 4.92685 18.816 4.68765 18.9821C4.44126 19.1559 4.21215 19.3219 4.00062 19.4799L3.57037 19.8027H5.40494L5.38621 19.9212L5.39745 20.0398ZM5.40494 17.7137H2.81533C2.81533 17.68 2.8185 17.6366 2.82484 17.5831C2.83118 17.5299 2.83406 17.4994 2.83406 17.4913C2.83406 17.4576 2.8329 17.43 2.83031 17.4084C2.82022 17.3235 2.81533 17.2769 2.81533 17.2692H5.40494C5.40494 17.3025 5.40379 17.3304 5.4012 17.352C5.39111 17.4369 5.38621 17.4835 5.38621 17.4913C5.38621 17.525 5.38938 17.5684 5.39543 17.6216C5.40177 17.6752 5.40494 17.7057 5.40494 17.7137ZM5.40437 15.8969C5.39947 15.9246 5.39486 15.9487 5.39169 15.9697C5.38794 15.9904 5.38621 16.0077 5.38621 16.0215C5.38621 16.0512 5.38852 16.0762 5.39313 16.0969C5.39803 16.1176 5.40177 16.1352 5.40437 16.149C5.13693 16.2241 4.84558 16.309 4.52973 16.4036C4.21388 16.4986 3.92771 16.5866 3.67094 16.6675C3.48968 16.7248 3.20409 16.8165 2.81417 16.9432C2.81417 16.9055 2.81792 16.8557 2.82426 16.7935C2.83118 16.7311 2.83406 16.6943 2.83406 16.6822C2.83406 16.6448 2.83118 16.595 2.82426 16.5325C2.81792 16.4704 2.81417 16.4333 2.81417 16.4215C3.07642 16.3602 3.38737 16.2773 3.74702 16.1726C4.05913 16.0817 4.37181 15.9899 4.68391 15.8969C4.41215 15.808 4.20581 15.7418 4.06489 15.6984C3.85797 15.6334 3.65019 15.5709 3.44126 15.5117C3.25999 15.4604 3.05135 15.404 2.81417 15.3427L2.82656 15.2066L2.81417 15.0703C3.09832 15.1669 3.38593 15.2639 3.67671 15.3606C3.96748 15.4573 4.25106 15.5493 4.528 15.6362C4.82483 15.7292 5.11676 15.8161 5.40437 15.8969ZM2.81533 14.9517V13.8226C2.84299 13.8267 2.8721 13.8301 2.90207 13.833C2.93233 13.8359 2.9574 13.8373 2.97757 13.8373C2.99515 13.8373 3.02167 13.8356 3.05682 13.8315C3.09227 13.8275 3.11994 13.8246 3.14011 13.8226C3.12224 13.9233 3.10927 14.0275 3.10034 14.1351C3.09141 14.243 3.08708 14.367 3.08708 14.5072H3.8989V14.199C3.8989 14.1219 3.89688 14.062 3.89313 14.0197C3.88939 13.9771 3.87988 13.9156 3.86489 13.8344C3.89256 13.8385 3.92137 13.8419 3.95163 13.8448C3.98189 13.8477 4.00696 13.8494 4.02714 13.8494C4.04472 13.8494 4.07123 13.8474 4.10639 13.8433C4.14155 13.8393 4.16921 13.8364 4.18938 13.8344C4.18189 13.8819 4.1744 13.9406 4.16691 14.0108C4.15913 14.081 4.15538 14.1437 4.15538 14.199V14.5072H5.11445C5.11445 14.367 5.10984 14.243 5.1012 14.1351C5.09226 14.0275 5.07901 13.9233 5.06143 13.8226C5.08909 13.8267 5.1182 13.8301 5.14817 13.833C5.17843 13.8359 5.20379 13.8373 5.22368 13.8373C5.24154 13.8373 5.26777 13.8356 5.30293 13.8315C5.33837 13.8275 5.36604 13.8246 5.38621 13.8226V14.9517H2.81533ZM5.40494 13.4788H2.81533V12.8475C2.81533 12.7114 2.8185 12.6115 2.82484 12.5482C2.83118 12.4852 2.85308 12.4248 2.89083 12.3675C3.00668 12.1958 3.18651 12.1097 3.4306 12.1097C3.60927 12.1097 3.75797 12.1512 3.87613 12.2343C3.99428 12.3172 4.07238 12.4297 4.11013 12.5721C4.28132 12.495 4.50264 12.3874 4.77469 12.249C4.95566 12.156 5.08794 12.089 5.17094 12.0476L5.40494 11.9319C5.40494 11.9696 5.40177 12.0202 5.39543 12.0847C5.38938 12.1489 5.38621 12.1877 5.38621 12.2015C5.38621 12.2392 5.38938 12.2901 5.39543 12.3543C5.40177 12.4185 5.40494 12.4564 5.40494 12.4682L4.61215 12.821L4.19313 13.0135V13.0342H5.40494C5.40494 13.0679 5.40379 13.0955 5.4012 13.1174C5.39111 13.2023 5.38621 13.2486 5.38621 13.2566C5.38621 13.2903 5.38938 13.3338 5.39543 13.387C5.40177 13.4402 5.40494 13.471 5.40494 13.4788ZM3.02282 13.0342H4.03088C4.03348 13.0204 4.03463 13.0078 4.03463 12.996C4.03463 12.9839 4.03463 12.9712 4.03463 12.9574C4.03463 12.6984 3.85394 12.569 3.49285 12.569C3.43319 12.569 3.37037 12.5741 3.30466 12.5839C3.18708 12.6018 3.10668 12.6472 3.0646 12.7203C3.03694 12.7695 3.02282 12.8458 3.02282 12.9485V13.0342ZM3.30236 10.6932V10.7378C3.19919 10.7674 3.11849 10.8109 3.06086 10.8681C3.00293 10.9254 2.97383 10.9956 2.97383 11.0785C2.97383 11.189 3.00726 11.271 3.07383 11.3245C3.14069 11.3777 3.23002 11.4045 3.34328 11.4045C3.47901 11.4045 3.60063 11.3274 3.70869 11.1731C3.90495 10.8929 4.00754 10.7476 4.01763 10.7378C4.17382 10.5815 4.37497 10.5036 4.62108 10.5036C4.86201 10.5036 5.06085 10.5766 5.21676 10.7228C5.37238 10.869 5.45019 11.0577 5.45019 11.2888C5.45019 11.3757 5.43693 11.4603 5.41071 11.5423C5.38419 11.6243 5.34327 11.6988 5.28794 11.7659C5.18275 11.7423 5.09803 11.7244 5.03319 11.7126C4.96834 11.7008 4.89486 11.6899 4.81215 11.6801V11.6237C4.94183 11.6019 5.04327 11.5547 5.11561 11.4816C5.18794 11.4085 5.22368 11.3196 5.22368 11.2149C5.22368 11.1159 5.18996 11.0336 5.12195 10.9674C5.05394 10.9012 4.95768 10.8681 4.83175 10.8681C4.67065 10.8681 4.53809 10.9441 4.43232 11.0963C4.33665 11.2384 4.24097 11.3797 4.14616 11.5199C3.99745 11.6741 3.79486 11.7512 3.53895 11.7512C3.31043 11.7512 3.12426 11.6939 2.98074 11.5791C2.82541 11.4548 2.74731 11.2839 2.74731 11.0667C2.74731 10.9677 2.76633 10.8745 2.80409 10.7867C2.84184 10.6987 2.88334 10.6359 2.92858 10.5982C3.00149 10.6201 3.06201 10.6368 3.10985 10.6489C3.19544 10.6684 3.25942 10.6834 3.30236 10.6932ZM5.40494 10.139H2.81533C2.81533 10.1053 2.8185 10.0619 2.82484 10.0087C2.83118 9.95542 2.83406 9.92463 2.83406 9.91687C2.83406 9.8832 2.8329 9.85558 2.83031 9.83371C2.82022 9.74883 2.81533 9.7025 2.81533 9.69444H5.40494C5.40494 9.72811 5.40379 9.75573 5.4012 9.7776C5.39111 9.86248 5.38621 9.90881 5.38621 9.91687C5.38621 9.95024 5.38938 9.99398 5.39543 10.0472C5.40177 10.1004 5.40494 10.1312 5.40494 10.139ZM2.81533 9.1699V8.15648C2.81533 7.86011 2.93982 7.63193 3.1891 7.47195C3.40812 7.33154 3.68737 7.26162 4.02714 7.26162C4.445 7.26162 4.77843 7.3652 5.02742 7.57266C5.26662 7.77034 5.38621 8.02614 5.38621 8.34035V9.1699H2.81533ZM3.03435 8.72534H5.16719V8.47357C5.16719 8.24827 5.08794 8.07735 4.92944 7.96082C4.74068 7.82271 4.43866 7.75336 4.02339 7.75336C3.68103 7.75336 3.428 7.81465 3.2646 7.93723C3.111 8.05175 3.03435 8.21777 3.03435 8.43501V8.72534ZM4.6159 5.89831V6.58888C4.84443 6.65219 5.01301 6.69794 5.12137 6.72671C5.22886 6.7552 5.32396 6.7785 5.40494 6.79634L5.38621 6.93561L5.40494 7.07775L2.78132 6.23036L2.79256 6.11757L2.78132 6.00506L5.40494 5.1781C5.40494 5.21378 5.40177 5.26212 5.39543 5.32341C5.38938 5.3847 5.38621 5.42124 5.38621 5.43304C5.38621 5.46872 5.38938 5.51706 5.39543 5.57835C5.40177 5.63963 5.40494 5.67618 5.40494 5.68797C5.22627 5.73142 5.09169 5.76509 5.0012 5.78868C4.85509 5.82609 4.72685 5.86292 4.6159 5.89831ZM4.38564 6.50832V5.9665L3.5061 6.23036L4.38564 6.50832ZM2.81533 4.88777V3.87436C2.81533 3.57799 2.93982 3.34981 3.1891 3.18983C3.40812 3.04941 3.68737 2.97949 4.02714 2.97949C4.445 2.97949 4.77843 3.08308 5.02742 3.29054C5.26662 3.48821 5.38621 3.74401 5.38621 4.05794V4.88777H2.81533ZM3.03435 4.44322H5.16719V4.19145C5.16719 3.96615 5.08794 3.79523 4.92944 3.6787C4.74068 3.54058 4.43866 3.47124 4.02339 3.47124C3.68103 3.47124 3.428 3.53253 3.2646 3.6551C3.111 3.76962 3.03435 3.93565 3.03435 4.15289V4.44322ZM7.03721 5.65776V3.07963H7.33087C7.46142 3.26061 7.60292 3.45397 7.75537 3.65999C7.84038 3.77336 7.98534 3.97046 8.19024 4.25187C8.39485 4.53328 8.53606 4.73067 8.613 4.84375V3.07963L8.73173 3.09085L8.85047 3.07963V5.66524L8.5983 5.6615C8.43001 5.42527 8.26286 5.18788 8.09658 4.94906C7.92251 4.70305 7.75623 4.47429 7.59802 4.26309L7.27468 3.8335V5.66524L7.15595 5.64654L7.03721 5.65776ZM10.9277 4.8777H10.2361C10.1727 5.10559 10.1268 5.27392 10.098 5.38211C10.0695 5.48943 10.0461 5.58439 10.0283 5.66524L9.88879 5.64654L9.74643 5.66524L10.5951 3.04567L10.7081 3.05718L10.8208 3.04567L11.6487 5.66524C11.6133 5.66524 11.5649 5.66208 11.5035 5.65604C11.4421 5.64971 11.4055 5.64654 11.3937 5.64654C11.358 5.64654 11.3095 5.64971 11.2482 5.65604C11.1868 5.66208 11.1502 5.66524 11.1384 5.66524C11.0948 5.48684 11.0611 5.35247 11.0375 5.26212C10.9997 5.11624 10.9631 4.98819 10.9277 4.8777ZM10.3167 4.6478H10.8594L10.5951 3.76933L10.3167 4.6478ZM14.1058 5.20544L14.1444 5.22817L14.079 5.54986C13.994 5.60453 13.9009 5.6451 13.8 5.671C13.6992 5.69747 13.5963 5.71071 13.4914 5.71071C13.1669 5.71071 12.9017 5.59619 12.696 5.3683C12.4822 5.13206 12.3755 4.82361 12.3755 4.44235C12.3755 3.97305 12.4911 3.61165 12.7228 3.35787C12.9343 3.12739 13.2124 3.01172 13.5568 3.01172C13.6617 3.01172 13.7669 3.02754 13.8729 3.05891C13.9787 3.09027 14.0752 3.13631 14.1623 3.19645C14.1522 3.2468 14.1409 3.3078 14.128 3.37945C14.1153 3.45081 14.1038 3.51929 14.094 3.58461H14.0525C13.9971 3.4816 13.9248 3.39815 13.8358 3.33399C13.7467 3.27011 13.6548 3.23788 13.5597 3.23788C13.3303 3.23788 13.153 3.36103 13.0286 3.60676C12.9216 3.8171 12.868 4.07865 12.868 4.38941C12.868 4.7206 12.9294 4.9856 13.0522 5.1853C13.1749 5.38441 13.349 5.48454 13.5747 5.48454C13.6675 5.48454 13.762 5.45922 13.8579 5.40829C13.9539 5.35765 14.0366 5.28974 14.1058 5.20544ZM15.1588 5.66524V3.07963C15.1925 3.07963 15.236 3.08279 15.2894 3.08912C15.343 3.09545 15.3735 3.09862 15.3816 3.09862C15.415 3.09862 15.443 3.09718 15.4646 3.09488C15.5496 3.0848 15.5963 3.07963 15.604 3.07963V5.66524C15.5703 5.66524 15.5427 5.66409 15.521 5.6615C15.436 5.65143 15.3893 5.64654 15.3816 5.64654C15.3479 5.64654 15.3043 5.64971 15.251 5.65604C15.1974 5.66208 15.1669 5.66524 15.1588 5.66524ZM18.8594 4.35172C18.8594 4.73297 18.7556 5.0515 18.5478 5.30787C18.3303 5.57604 18.0444 5.71071 17.6902 5.71071C17.3556 5.71071 17.0891 5.59244 16.8902 5.35679C16.6914 5.12055 16.5919 4.79081 16.5919 4.36697C16.5919 3.97794 16.6937 3.65827 16.8977 3.40707C17.1112 3.14379 17.3991 3.01172 17.7614 3.01172C18.1452 3.01172 18.434 3.16249 18.628 3.46347C18.7824 3.70402 18.8594 4.00068 18.8594 4.35172ZM17.7435 3.23788C17.5317 3.23788 17.3706 3.33859 17.2597 3.53886C17.1429 3.75006 17.0844 4.06225 17.0844 4.47631C17.0844 4.75196 17.132 4.98129 17.2271 5.16458C17.3378 5.3775 17.4971 5.48454 17.7049 5.48454C17.9205 5.48454 18.0879 5.36254 18.2066 5.1194C18.3133 4.899 18.3669 4.61874 18.3669 4.28007C18.3669 4.00183 18.3193 3.76761 18.2242 3.57655C18.1115 3.35096 17.9513 3.23788 17.7435 3.23788ZM19.8205 5.65776V3.07963H20.1144C20.245 3.26061 20.3865 3.45397 20.5389 3.65999C20.6239 3.77336 20.7689 3.97046 20.9738 4.25187C21.1784 4.53328 21.3193 4.73067 21.3965 4.84375V3.07963L21.5153 3.09085L21.634 3.07963V5.66524L21.3818 5.6615C21.2135 5.42527 21.0464 5.18788 20.8801 4.94906C20.706 4.70305 20.5398 4.47429 20.3816 4.26309L20.0579 3.8335V5.66524L19.9392 5.64654L19.8205 5.65776ZM23.7112 4.8777H23.0196C22.9562 5.10559 22.9101 5.27392 22.8815 5.38211C22.8527 5.48943 22.8297 5.58439 22.8118 5.66524L22.6723 5.64654L22.5297 5.66524L23.3787 3.04567L23.4913 3.05718L23.6043 3.04567L24.4323 5.66524C24.3968 5.66524 24.3481 5.66208 24.287 5.65604C24.2256 5.64971 24.189 5.64654 24.1769 5.64654C24.1415 5.64654 24.0931 5.64971 24.0317 5.65604C23.9703 5.66208 23.9337 5.66524 23.9219 5.66524C23.8784 5.48684 23.8447 5.35247 23.821 5.26212C23.7833 5.11624 23.7467 4.98819 23.7112 4.8777ZM23.1003 4.6478H23.6429L23.3787 3.76933L23.1003 4.6478ZM25.7645 3.07963V5.3752C25.891 5.3752 25.9994 5.37146 26.0893 5.36369C26.1795 5.35621 26.2977 5.3424 26.4441 5.32226C26.44 5.34988 26.4366 5.37894 26.4337 5.40916C26.4308 5.43908 26.4291 5.4644 26.4291 5.48454C26.4291 5.50209 26.4311 5.52828 26.4351 5.56367C26.4392 5.59878 26.4421 5.6264 26.4441 5.64654H25.3193V3.07963C25.3527 3.07963 25.3962 3.08279 25.4498 3.08912C25.5032 3.09545 25.534 3.09862 25.5418 3.09862C25.5755 3.09862 25.6031 3.09718 25.6248 3.09488C25.7101 3.0848 25.7565 3.07963 25.7645 3.07963ZM30.6184 3.02697V4.04038C30.6184 4.33675 30.4939 4.56493 30.2446 4.7252C30.0256 4.86533 29.7464 4.93554 29.4066 4.93554C28.9887 4.93554 28.6553 4.83166 28.4063 4.62421C28.1671 4.42682 28.0475 4.17102 28.0475 3.85681V3.02697H30.6184ZM30.3994 3.47152H28.2665V3.7233C28.2665 3.94859 28.3458 4.11951 28.5043 4.23605C28.6931 4.37445 28.9951 4.44351 29.4103 4.44351C29.7527 4.44351 30.0054 4.38222 30.1691 4.25993C30.3227 4.14512 30.3994 3.97938 30.3994 3.76185V3.47152ZM30.6184 6.03355V7.16263C30.5907 7.15861 30.5616 7.15515 30.5317 7.15228C30.5014 7.1494 30.476 7.14796 30.4562 7.14796C30.4383 7.14796 30.4121 7.14969 30.3766 7.15371C30.3415 7.15774 30.3138 7.16062 30.2936 7.16263C30.3112 7.06192 30.3245 6.95776 30.3334 6.84986C30.342 6.74225 30.3467 6.61823 30.3467 6.4781H29.5348V6.78627C29.5348 6.86339 29.5369 6.92295 29.5406 6.96553C29.5443 7.00812 29.5539 7.06969 29.5688 7.15084C29.5412 7.14681 29.5124 7.14336 29.4821 7.14048C29.4518 7.1376 29.4268 7.13587 29.4066 7.13587C29.389 7.13587 29.3625 7.13789 29.3273 7.14192C29.2922 7.14595 29.2645 7.14882 29.2444 7.15084C29.2518 7.10336 29.2593 7.04466 29.2668 6.97445C29.2746 6.90424 29.2784 6.84152 29.2784 6.78627V6.4781H28.3193C28.3193 6.61823 28.3239 6.74225 28.3325 6.84986C28.3415 6.95776 28.3547 7.06192 28.3723 7.16263C28.3446 7.15861 28.3155 7.15515 28.2853 7.15228C28.2553 7.1494 28.2299 7.14796 28.2098 7.14796C28.1922 7.14796 28.166 7.14969 28.1305 7.15371C28.0954 7.15774 28.0677 7.16062 28.0475 7.16263V6.03355H30.6184ZM30.6824 11.0885H28.3835C28.3835 11.2151 28.3873 11.3233 28.3948 11.4131C28.4023 11.5032 28.4161 11.6211 28.4363 11.7673C28.4086 11.7633 28.3798 11.7598 28.3495 11.757C28.3193 11.7541 28.2942 11.7523 28.274 11.7523C28.2565 11.7523 28.2299 11.7544 28.1948 11.7584C28.1596 11.7624 28.132 11.7653 28.1118 11.7673V10.6443H30.6824C30.6824 10.6776 30.6792 10.7211 30.6732 10.7746C30.6668 10.8278 30.6637 10.8586 30.6637 10.8664C30.6637 10.9001 30.6648 10.9277 30.6674 10.9493C30.6775 11.0344 30.6824 11.0808 30.6824 11.0885ZM28.8818 13.7737V13.0834C28.6533 13.0201 28.4847 12.9741 28.3766 12.9456C28.2691 12.9168 28.174 12.8935 28.0928 12.876L28.1118 12.7367L28.0928 12.5943L30.7164 13.4419L30.7052 13.5545L30.7164 13.667L28.0928 14.4939C28.0928 14.4582 28.0959 14.4099 28.1023 14.3486C28.1086 14.2873 28.1118 14.2508 28.1118 14.239C28.1118 14.2036 28.1086 14.155 28.1023 14.094C28.0959 14.0327 28.0928 13.9961 28.0928 13.984C28.2714 13.9406 28.406 13.9072 28.4968 13.8833C28.6426 13.8459 28.7712 13.8094 28.8818 13.7737ZM29.1121 13.1637V13.7055L29.9916 13.4419L29.1121 13.1637ZM28.1003 15.4484H30.6824V15.7418C30.5014 15.8722 30.3075 16.0135 30.1011 16.1654C29.9879 16.2506 29.7905 16.3953 29.5086 16.5996C29.2265 16.8042 29.0291 16.9449 28.9158 17.022H30.6824L30.6711 17.1405L30.6824 17.2591H28.0928L28.0965 17.007C28.3331 16.8393 28.5709 16.6724 28.8101 16.5064C29.0567 16.3326 29.2858 16.1665 29.4971 16.0086L29.9273 15.6854H28.0928L28.1118 15.5669L28.1003 15.4484ZM29.1441 18.4357H30.6824C30.6824 18.4693 30.6792 18.5128 30.6732 18.566C30.6668 18.6195 30.6637 18.65 30.6637 18.6581C30.6637 18.6915 30.6648 18.7194 30.6674 18.7409C30.6775 18.8258 30.6824 18.8724 30.6824 18.8802H29.6124H29.4423C29.3467 18.8802 29.253 18.8808 29.1599 18.8816C29.0668 18.8828 28.9732 18.89 28.8792 18.9041C28.785 18.9179 28.7083 18.934 28.649 18.9527C28.5899 18.9717 28.5288 19.0068 28.4665 19.058C28.3585 19.149 28.3043 19.2615 28.3043 19.3958C28.3043 19.5363 28.3383 19.6459 28.406 19.7247C28.474 19.8038 28.5919 19.87 28.7605 19.9233C28.8334 19.9471 28.936 19.9618 29.0694 19.9679C29.2026 19.9736 29.3593 19.9768 29.5406 19.9768H30.6824L30.6711 20.0953L30.6824 20.2139H29.3406C29.0642 20.2139 28.8616 20.2001 28.7334 20.1722C28.5302 20.1287 28.3677 20.0381 28.2475 19.8997C28.1772 19.8246 28.1262 19.7385 28.0948 19.6418C28.0634 19.5452 28.0475 19.4442 28.0475 19.3394C28.0475 19.134 28.0916 18.9602 28.1798 18.8181C28.2873 18.646 28.4547 18.5346 28.6812 18.4831C28.7484 18.4673 28.8233 18.4555 28.9052 18.4477C28.987 18.4397 29.0668 18.4357 29.1441 18.4357ZM30.1956 22.3417V22.2974C30.2988 22.2678 30.3792 22.2243 30.4371 22.167C30.4951 22.1095 30.5239 22.0396 30.5239 21.9564C30.5239 21.8459 30.4905 21.7639 30.4239 21.7104C30.3573 21.6572 30.268 21.6304 30.1547 21.6304C30.0187 21.6304 29.8974 21.7075 29.789 21.8618C29.5928 22.1423 29.4902 22.2873 29.4801 22.2974C29.3242 22.4533 29.1227 22.5313 28.8769 22.5313C28.6357 22.5313 28.4369 22.4582 28.281 22.3121C28.1256 22.1659 28.0475 21.9771 28.0475 21.7461C28.0475 21.6592 28.0608 21.5746 28.0873 21.4926C28.1135 21.4109 28.1544 21.3361 28.2098 21.269C28.315 21.2926 28.4 21.3104 28.4648 21.3222C28.5294 21.334 28.6031 21.345 28.6856 21.355V21.4112C28.5559 21.433 28.4547 21.4805 28.3821 21.5536C28.3098 21.6267 28.274 21.7156 28.274 21.8203C28.274 21.919 28.308 22.0013 28.3761 22.0675C28.4438 22.1337 28.5403 22.167 28.666 22.167C28.8271 22.167 28.9599 22.0908 29.0657 21.9386C29.1611 21.7964 29.2567 21.6552 29.3518 21.515C29.5003 21.3608 29.7028 21.2837 29.959 21.2837C30.1873 21.2837 30.3735 21.3409 30.517 21.4558C30.6726 21.5801 30.7504 21.751 30.7504 21.9685C30.7504 22.0672 30.7317 22.1604 30.6939 22.2485C30.6562 22.3362 30.6147 22.399 30.5691 22.4367C30.4962 22.4148 30.436 22.3981 30.3881 22.3863C30.3026 22.3664 30.2383 22.3518 30.1956 22.3417ZM20.5354 32.4062L14.979 32.1861L15.3761 33.2133L19.7565 32.9492L24.8277 34.2115L24.9599 33.9033L20.5354 32.4062Z" fill="#FF4930"/>
</svg>
